<svg width="42" height="42" viewBox="0 0 42 42" fill="none" xmlns="http://www.w3.org/2000/svg">
<path d="M0.5 8C0.5 3.85786 3.85786 0.5 8 0.5H34C38.1421 0.5 41.5 3.85786 41.5 8V34C41.5 38.1421 38.1421 41.5 34 41.5H8C3.85786 41.5 0.5 38.1421 0.5 34V8Z" fill="#FEE4E2"/>
<path d="M0.5 8C0.5 3.85786 3.85786 0.5 8 0.5H34C38.1421 0.5 41.5 3.85786 41.5 8V34C41.5 38.1421 38.1421 41.5 34 41.5H8C3.85786 41.5 0.5 38.1421 0.5 34V8Z" stroke="#FECDCA"/>
<path opacity="0.4" d="M25.0133 24.6667V34.32L9.01335 34.3467V24.6667L9 22.6667V14.4267C9 13.5334 9.45335 12.7067 10.1867 12.2133L15.52 8.65337C16.4134 8.05337 17.5866 8.05337 18.48 8.65337L23.8133 12.2133C24.56 12.7067 25 13.5334 25 14.4267V22.6667L25.0133 24.6667Z" fill="#F04438"/>
<path d="M34.3334 33.3334H32.6401V29.3334C33.9067 28.9201 34.8267 27.7334 34.8267 26.3334V23.6667C34.8267 21.9201 33.4001 20.4934 31.6534 20.4934C29.9067 20.4934 28.4801 21.9201 28.4801 23.6667V26.3334C28.4801 27.7201 29.3867 28.8934 30.6267 29.3201V33.3334H7.66675C7.12008 33.3334 6.66675 33.7867 6.66675 34.3334C6.66675 34.8801 7.12008 35.3334 7.66675 35.3334H31.5734C31.6001 35.3334 31.6134 35.3468 31.6401 35.3468C31.6667 35.3468 31.6801 35.3334 31.7068 35.3334H34.3334C34.8801 35.3334 35.3334 34.8801 35.3334 34.3334C35.3334 33.7867 34.8801 33.3334 34.3334 33.3334Z" fill="#F04438"/>
<path d="M25.0133 24.6667H9.01335L9 22.6667H25L25.0133 24.6667Z" fill="#F04438"/>
<path d="M17 35.3333C16.4533 35.3333 16 34.8799 16 34.3333V29.3333C16 28.7866 16.4533 28.3333 17 28.3333C17.5467 28.3333 18 28.7866 18 29.3333V34.3333C18 34.8799 17.5467 35.3333 17 35.3333Z" fill="#F04438"/>
<path d="M17.0001 19.3334C18.2887 19.3334 19.3334 18.2887 19.3334 17.0001C19.3334 15.7114 18.2887 14.6667 17.0001 14.6667C15.7114 14.6667 14.6667 15.7114 14.6667 17.0001C14.6667 18.2887 15.7114 19.3334 17.0001 19.3334Z" fill="#F04438"/>
</svg>
