<svg width="42" height="42" viewBox="0 0 42 42" fill="none" xmlns="http://www.w3.org/2000/svg">
<path d="M0.5 8C0.5 3.85786 3.85786 0.5 8 0.5H34C38.1421 0.5 41.5 3.85786 41.5 8V34C41.5 38.1421 38.1421 41.5 34 41.5H8C3.85786 41.5 0.5 38.1421 0.5 34V8Z" fill="#912018"/>
<path d="M0.5 8C0.5 3.85786 3.85786 0.5 8 0.5H34C38.1421 0.5 41.5 3.85786 41.5 8V34C41.5 38.1421 38.1421 41.5 34 41.5H8C3.85786 41.5 0.5 38.1421 0.5 34V8Z" stroke="#B42318"/>
<path opacity="0.4" d="M25.0133 24.6665V34.3198L9.01335 34.3465V24.6665L9 22.6665V14.4265C9 13.5331 9.45335 12.7064 10.1867 12.2131L15.52 8.65312C16.4134 8.05312 17.5866 8.05312 18.48 8.65312L23.8133 12.2131C24.56 12.7064 25 13.5331 25 14.4265V22.6665L25.0133 24.6665Z" fill="#F97066"/>
<path d="M34.3333 33.3332H32.64V29.3332C33.9066 28.9198 34.8267 27.7332 34.8267 26.3332V23.6665C34.8267 21.9198 33.4 20.4932 31.6533 20.4932C29.9066 20.4932 28.48 21.9198 28.48 23.6665V26.3332C28.48 27.7198 29.3866 28.8932 30.6266 29.3198V33.3332H7.66666C7.11999 33.3332 6.66666 33.7865 6.66666 34.3332C6.66666 34.8798 7.11999 35.3332 7.66666 35.3332H31.5733C31.6 35.3332 31.6133 35.3465 31.64 35.3465C31.6666 35.3465 31.68 35.3332 31.7067 35.3332H34.3333C34.88 35.3332 35.3333 34.8798 35.3333 34.3332C35.3333 33.7865 34.88 33.3332 34.3333 33.3332Z" fill="#F97066"/>
<path d="M25.0133 24.6665H9.01335L9 22.6665H25L25.0133 24.6665Z" fill="#F97066"/>
<path d="M17 35.3335C16.4533 35.3335 16 34.8802 16 34.3335V29.3335C16 28.7868 16.4533 28.3335 17 28.3335C17.5467 28.3335 18 28.7868 18 29.3335V34.3335C18 34.8802 17.5467 35.3335 17 35.3335Z" fill="#F97066"/>
<path d="M17 19.3332C18.2887 19.3332 19.3333 18.2885 19.3333 16.9998C19.3333 15.7112 18.2887 14.6665 17 14.6665C15.7113 14.6665 14.6667 15.7112 14.6667 16.9998C14.6667 18.2885 15.7113 19.3332 17 19.3332Z" fill="#F97066"/>
</svg>
