<svg width="28" height="28" viewBox="0 0 28 28" fill="none" xmlns="http://www.w3.org/2000/svg">
<rect width="28" height="28" rx="8" fill="#1C3BA4"/>
<g clip-path="url(#clip0_1637_7054)">
<path d="M18.1667 6.49992H21.5001C21.7211 6.49992 21.9331 6.58772 22.0893 6.744C22.2456 6.90028 22.3334 7.11224 22.3334 7.33325V20.6666C22.3334 20.8876 22.2456 21.0996 22.0893 21.2558C21.9331 21.4121 21.7211 21.4999 21.5001 21.4999H6.50008C6.27907 21.4999 6.06711 21.4121 5.91083 21.2558C5.75455 21.0996 5.66675 20.8876 5.66675 20.6666V7.33325C5.66675 7.11224 5.75455 6.90028 5.91083 6.744C6.06711 6.58772 6.27907 6.49992 6.50008 6.49992H9.83342V4.83325H11.5001V6.49992H16.5001V4.83325H18.1667V6.49992ZM20.6667 11.4999V8.16659H18.1667V9.83325H16.5001V8.16659H11.5001V9.83325H9.83342V8.16659H7.33341V11.4999H20.6667ZM20.6667 13.1666H7.33341V19.8333H20.6667V13.1666ZM9.00008 14.8333H13.1667V18.1666H9.00008V14.8333Z" fill="#F9F5FF"/>
</g>
<defs>
<clipPath id="clip0_1637_7054">
<rect width="20" height="20" fill="white" transform="translate(4 4)"/>
</clipPath>
</defs>
</svg>
