<svg width="52" height="52" viewBox="0 0 52 52" fill="none" xmlns="http://www.w3.org/2000/svg">
<g filter="url(#filter0_d_1628_2337)">
<rect x="2" y="1" width="48" height="48" rx="8" fill="#F9FAFB"/>
<rect x="2.5" y="1.5" width="47" height="47" rx="7.5" stroke="#E5E7EB"/>
<g clip-path="url(#clip0_1628_2337)">
<path d="M21.291 33.824L16 35L17.176 29.709C16.4015 28.2604 15.9975 26.6426 16 25C16 19.477 20.477 15 26 15C31.523 15 36 19.477 36 25C36 30.523 31.523 35 26 35C24.3574 35.0025 22.7396 34.5985 21.291 33.824ZM21 25C21 26.3261 21.5268 27.5979 22.4645 28.5355C23.4022 29.4732 24.6739 30 26 30C27.3261 30 28.5979 29.4732 29.5355 28.5355C30.4732 27.5979 31 26.3261 31 25H29C29 25.7956 28.6839 26.5587 28.1213 27.1213C27.5587 27.6839 26.7957 28 26 28C25.2044 28 24.4413 27.6839 23.8787 27.1213C23.3161 26.5587 23 25.7956 23 25H21Z" fill="#18181B"/>
</g>
</g>
<defs>
<filter id="filter0_d_1628_2337" x="0" y="0" width="52" height="52" filterUnits="userSpaceOnUse" color-interpolation-filters="sRGB">
<feFlood flood-opacity="0" result="BackgroundImageFix"/>
<feColorMatrix in="SourceAlpha" type="matrix" values="0 0 0 0 0 0 0 0 0 0 0 0 0 0 0 0 0 0 127 0" result="hardAlpha"/>
<feOffset dy="1"/>
<feGaussianBlur stdDeviation="1"/>
<feComposite in2="hardAlpha" operator="out"/>
<feColorMatrix type="matrix" values="0 0 0 0 0 0 0 0 0 0 0 0 0 0 0 0 0 0 0.05 0"/>
<feBlend mode="normal" in2="BackgroundImageFix" result="effect1_dropShadow_1628_2337"/>
<feBlend mode="normal" in="SourceGraphic" in2="effect1_dropShadow_1628_2337" result="shape"/>
</filter>
<clipPath id="clip0_1628_2337">
<rect width="24" height="24" fill="white" transform="translate(14 13)"/>
</clipPath>
</defs>
</svg>
