<svg width="36" height="36" viewBox="0 0 36 36" fill="none" xmlns="http://www.w3.org/2000/svg">
<g filter="url(#filter0_d_1637_7026)">
<rect x="2" y="1" width="32" height="32" rx="16" fill="#F9FAFB"/>
<rect x="2.5" y="1.5" width="31" height="31" rx="15.5" stroke="#E5E7EB"/>
<g clip-path="url(#clip0_1637_7026)">
<path d="M14.0759 24.3534L9.66676 25.3334L10.6468 20.9242C10.0014 19.7171 9.6647 18.369 9.66676 17.0001C9.66676 12.3976 13.3976 8.66675 18.0001 8.66675C22.6026 8.66675 26.3334 12.3976 26.3334 17.0001C26.3334 21.6026 22.6026 25.3334 18.0001 25.3334C16.6312 25.3355 15.2831 24.9988 14.0759 24.3534ZM13.8334 17.0001C13.8334 18.1052 14.2724 19.165 15.0538 19.9464C15.8352 20.7278 16.895 21.1667 18.0001 21.1667C19.1052 21.1667 20.165 20.7278 20.9464 19.9464C21.7278 19.165 22.1668 18.1052 22.1668 17.0001H20.5001C20.5001 17.6631 20.2367 18.299 19.7679 18.7678C19.299 19.2367 18.6631 19.5001 18.0001 19.5001C17.3371 19.5001 16.7012 19.2367 16.2323 18.7678C15.7635 18.299 15.5001 17.6631 15.5001 17.0001H13.8334Z" fill="#18181B"/>
</g>
</g>
<defs>
<filter id="filter0_d_1637_7026" x="0" y="0" width="36" height="36" filterUnits="userSpaceOnUse" color-interpolation-filters="sRGB">
<feFlood flood-opacity="0" result="BackgroundImageFix"/>
<feColorMatrix in="SourceAlpha" type="matrix" values="0 0 0 0 0 0 0 0 0 0 0 0 0 0 0 0 0 0 127 0" result="hardAlpha"/>
<feOffset dy="1"/>
<feGaussianBlur stdDeviation="1"/>
<feComposite in2="hardAlpha" operator="out"/>
<feColorMatrix type="matrix" values="0 0 0 0 0 0 0 0 0 0 0 0 0 0 0 0 0 0 0.05 0"/>
<feBlend mode="normal" in2="BackgroundImageFix" result="effect1_dropShadow_1637_7026"/>
<feBlend mode="normal" in="SourceGraphic" in2="effect1_dropShadow_1637_7026" result="shape"/>
</filter>
<clipPath id="clip0_1637_7026">
<rect width="20" height="20" fill="white" transform="translate(8 7)"/>
</clipPath>
</defs>
</svg>
