<svg width="36" height="36" viewBox="0 0 36 36" fill="none" xmlns="http://www.w3.org/2000/svg">
<g filter="url(#filter0_d_1652_20544)">
<rect x="2" y="1" width="32" height="32" rx="16" fill="#101828"/>
<rect x="2.5" y="1.5" width="31" height="31" rx="15.5" stroke="#344054"/>
<g clip-path="url(#clip0_1652_20544)">
<path d="M14.0759 24.3532L9.66676 25.3332L10.6468 20.924C10.0014 19.7168 9.6647 18.3687 9.66676 16.9998C9.66676 12.3973 13.3976 8.6665 18.0001 8.6665C22.6026 8.6665 26.3334 12.3973 26.3334 16.9998C26.3334 21.6023 22.6026 25.3332 18.0001 25.3332C16.6312 25.3352 15.2831 24.9986 14.0759 24.3532ZM13.8334 16.9998C13.8334 18.1049 14.2724 19.1647 15.0538 19.9461C15.8352 20.7275 16.895 21.1665 18.0001 21.1665C19.1052 21.1665 20.165 20.7275 20.9464 19.9461C21.7278 19.1647 22.1668 18.1049 22.1668 16.9998H20.5001C20.5001 17.6629 20.2367 18.2988 19.7679 18.7676C19.299 19.2364 18.6631 19.4998 18.0001 19.4998C17.3371 19.4998 16.7012 19.2364 16.2323 18.7676C15.7635 18.2988 15.5001 17.6629 15.5001 16.9998H13.8334Z" fill="#FDFDFD"/>
</g>
</g>
<defs>
<filter id="filter0_d_1652_20544" x="0" y="0" width="36" height="36" filterUnits="userSpaceOnUse" color-interpolation-filters="sRGB">
<feFlood flood-opacity="0" result="BackgroundImageFix"/>
<feColorMatrix in="SourceAlpha" type="matrix" values="0 0 0 0 0 0 0 0 0 0 0 0 0 0 0 0 0 0 127 0" result="hardAlpha"/>
<feOffset dy="1"/>
<feGaussianBlur stdDeviation="1"/>
<feComposite in2="hardAlpha" operator="out"/>
<feColorMatrix type="matrix" values="0 0 0 0 0 0 0 0 0 0 0 0 0 0 0 0 0 0 0.05 0"/>
<feBlend mode="normal" in2="BackgroundImageFix" result="effect1_dropShadow_1652_20544"/>
<feBlend mode="normal" in="SourceGraphic" in2="effect1_dropShadow_1652_20544" result="shape"/>
</filter>
<clipPath id="clip0_1652_20544">
<rect width="20" height="20" fill="white" transform="translate(8 7)"/>
</clipPath>
</defs>
</svg>
