<svg width="25" height="24" viewBox="0 0 25 24" fill="none" xmlns="http://www.w3.org/2000/svg">
<g clip-path="url(#clip0_1628_2033)">
<path d="M21.75 20H23.75V22H1.75V20H3.75V3C3.75 2.73478 3.85536 2.48043 4.04289 2.29289C4.23043 2.10536 4.48478 2 4.75 2H20.75C21.0152 2 21.2696 2.10536 21.4571 2.29289C21.6446 2.48043 21.75 2.73478 21.75 3V20ZM11.75 8H9.75V10H11.75V12H13.75V10H15.75V8H13.75V6H11.75V8ZM14.75 20H16.75V14H8.75V20H10.75V16H14.75V20Z" fill="#F04438"/>
</g>
<defs>
<clipPath id="clip0_1628_2033">
<rect width="24" height="24" fill="white" transform="translate(0.75)"/>
</clipPath>
</defs>
</svg>
