<svg width="42" height="42" viewBox="0 0 42 42" fill="none" xmlns="http://www.w3.org/2000/svg">
<path d="M0.5 8C0.5 3.85786 3.85786 0.5 8 0.5H34C38.1421 0.5 41.5 3.85786 41.5 8V34C41.5 38.1421 38.1421 41.5 34 41.5H8C3.85786 41.5 0.5 38.1421 0.5 34V8Z" fill="#183188"/>
<path d="M0.5 8C0.5 3.85786 3.85786 0.5 8 0.5H34C38.1421 0.5 41.5 3.85786 41.5 8V34C41.5 38.1421 38.1421 41.5 34 41.5H8C3.85786 41.5 0.5 38.1421 0.5 34V8Z" stroke="#1C3BA4"/>
<path opacity="0.4" d="M34.3196 13.0264C34.3463 13.3464 34.3197 13.6798 34.2397 14.0131L29.7463 32.0531C29.4263 33.3997 28.2263 34.3331 26.8397 34.3331H9.31965C7.30631 34.3331 5.87967 32.3598 6.46634 30.4264L12.0797 12.3864C12.4663 11.1331 13.6263 10.2798 14.933 10.2798H31.333C32.613 10.2798 33.653 11.0398 34.093 12.1064C34.2263 12.3864 34.293 12.7064 34.3196 13.0264Z" fill="#4F73DF"/>
<path d="M35.6533 31.16C35.7867 32.88 34.4267 34.3333 32.7067 34.3333H26.84C28.2267 34.3333 29.4267 33.4 29.7467 32.0533L34.24 14.0133C34.32 13.68 34.3467 13.3467 34.32 13.0267L34.3333 13L35.6533 31.16Z" fill="#4F73DF"/>
<path d="M17.9066 14.5065C17.8266 14.5065 17.7466 14.4932 17.6666 14.4798C17.1333 14.3465 16.8 13.8132 16.9333 13.2665L18.32 7.50652C18.4533 6.97318 18.9866 6.6532 19.5333 6.7732C20.0666 6.90653 20.4 7.43983 20.2667 7.9865L18.88 13.7465C18.7733 14.1998 18.36 14.5065 17.9066 14.5065Z" fill="#4F73DF"/>
<path d="M26.84 14.5197C26.7733 14.5197 26.6933 14.5197 26.6267 14.493C26.0933 14.373 25.7467 13.8397 25.8533 13.3064L27.1066 7.51974C27.2266 6.97307 27.76 6.63971 28.2933 6.74638C28.8267 6.86638 29.1733 7.39973 29.0666 7.93307L27.8133 13.7197C27.72 14.1997 27.3067 14.5197 26.84 14.5197Z" fill="#4F73DF"/>
<path d="M25.9333 22H15.2667C14.72 22 14.2667 21.5467 14.2667 21C14.2667 20.4533 14.72 20 15.2667 20H25.9333C26.48 20 26.9333 20.4533 26.9333 21C26.9333 21.5467 26.48 22 25.9333 22Z" fill="#4F73DF"/>
<path d="M24.6 27.3335H13.9333C13.3867 27.3335 12.9333 26.8802 12.9333 26.3335C12.9333 25.7868 13.3867 25.3335 13.9333 25.3335H24.6C25.1467 25.3335 25.6 25.7868 25.6 26.3335C25.6 26.8802 25.1467 27.3335 24.6 27.3335Z" fill="#4F73DF"/>
</svg>
