<svg width="42" height="42" viewBox="0 0 42 42" fill="none" xmlns="http://www.w3.org/2000/svg">
<path d="M0.5 8C0.5 3.85786 3.85786 0.5 8 0.5H34C38.1421 0.5 41.5 3.85786 41.5 8V34C41.5 38.1421 38.1421 41.5 34 41.5H8C3.85786 41.5 0.5 38.1421 0.5 34V8Z" fill="#C6D4F1"/>
<path d="M0.5 8C0.5 3.85786 3.85786 0.5 8 0.5H34C38.1421 0.5 41.5 3.85786 41.5 8V34C41.5 38.1421 38.1421 41.5 34 41.5H8C3.85786 41.5 0.5 38.1421 0.5 34V8Z" stroke="#A0B6EA"/>
<path opacity="0.4" d="M34.3196 13.0267C34.3462 13.3467 34.3196 13.68 34.2396 14.0133L29.7462 32.0533C29.4262 33.4 28.2263 34.3333 26.8396 34.3333H9.31957C7.30624 34.3333 5.87959 32.36 6.46626 30.4267L12.0796 12.3866C12.4662 11.1333 13.6263 10.28 14.9329 10.28H31.3329C32.6129 10.28 33.6529 11.04 34.0929 12.1067C34.2263 12.3867 34.2929 12.7067 34.3196 13.0267Z" fill="#254EDB"/>
<path d="M35.6534 31.16C35.7867 32.88 34.4267 34.3333 32.7067 34.3333H26.8401C28.2268 34.3333 29.4267 33.4 29.7467 32.0533L34.2401 14.0133C34.3201 13.68 34.3467 13.3467 34.3201 13.0267L34.3334 13L35.6534 31.16Z" fill="#254EDB"/>
<path d="M17.9065 14.5068C17.8265 14.5068 17.7465 14.4934 17.6665 14.4801C17.1332 14.3467 16.7999 13.8134 16.9332 13.2668L18.3198 7.50676C18.4532 6.97343 18.9865 6.65344 19.5332 6.77344C20.0665 6.90678 20.3999 7.44008 20.2665 7.98674L18.8799 13.7468C18.7732 14.2001 18.3599 14.5068 17.9065 14.5068Z" fill="#254EDB"/>
<path d="M26.8399 14.52C26.7733 14.52 26.6932 14.52 26.6266 14.4933C26.0932 14.3733 25.7466 13.8399 25.8533 13.3066L27.1066 7.51998C27.2266 6.97331 27.7599 6.63996 28.2932 6.74662C28.8266 6.86662 29.1732 7.39998 29.0666 7.93331L27.8132 13.7199C27.7199 14.1999 27.3066 14.52 26.8399 14.52Z" fill="#254EDB"/>
<path d="M25.9333 22H15.2666C14.7199 22 14.2666 21.5467 14.2666 21C14.2666 20.4533 14.7199 20 15.2666 20H25.9333C26.4799 20 26.9333 20.4533 26.9333 21C26.9333 21.5467 26.4799 22 25.9333 22Z" fill="#254EDB"/>
<path d="M24.6 27.3333H13.9333C13.3867 27.3333 12.9333 26.8799 12.9333 26.3333C12.9333 25.7866 13.3867 25.3333 13.9333 25.3333H24.6C25.1467 25.3333 25.6 25.7866 25.6 26.3333C25.6 26.8799 25.1467 27.3333 24.6 27.3333Z" fill="#254EDB"/>
</svg>
