<svg width="42" height="42" viewBox="0 0 42 42" fill="none" xmlns="http://www.w3.org/2000/svg">
<path d="M0.5 8C0.5 3.85786 3.85786 0.5 8 0.5H34C38.1421 0.5 41.5 3.85786 41.5 8V34C41.5 38.1421 38.1421 41.5 34 41.5H8C3.85786 41.5 0.5 38.1421 0.5 34V8Z" fill="#912018"/>
<path d="M0.5 8C0.5 3.85786 3.85786 0.5 8 0.5H34C38.1421 0.5 41.5 3.85786 41.5 8V34C41.5 38.1421 38.1421 41.5 34 41.5H8C3.85786 41.5 0.5 38.1421 0.5 34V8Z" stroke="#B93815"/>
<path d="M32.96 6.3335H29.04C27.3467 6.3335 26.3333 7.34683 26.3333 9.04016V12.9602C26.3333 14.6535 27.3467 15.6668 29.04 15.6668H32.96C34.6533 15.6668 35.6667 14.6535 35.6667 12.9602V9.04016C35.6667 7.34683 34.6533 6.3335 32.96 6.3335ZM33.8133 11.2402C33.32 12.8135 31.6 13.6668 31 13.6668C30.4 13.6668 28.6933 12.8402 28.1867 11.2402C28.1067 11.0002 28.0667 10.7335 28.0667 10.4802C28.0667 9.6135 28.5067 8.72016 29.4267 8.42683C29.9733 8.2535 30.56 8.34683 30.9733 8.6935C31.4 8.36016 31.9867 8.2535 32.5467 8.42683C33.7733 8.8135 34.16 10.1868 33.8133 11.2402Z" fill="#F38744"/>
<path opacity="0.4" d="M32.96 15.6665H29.04C27.3467 15.6665 26.3333 14.6532 26.3333 12.9598V9.03984C26.3333 8.5065 26.44 8.05317 26.6267 7.6665H14.3333C10.6533 7.6665 7.66667 10.6398 7.66667 14.3065V22.2798V23.6132C7.66667 27.2798 10.6533 30.2532 14.3333 30.2532H16.3333C16.6933 30.2532 17.1733 30.4932 17.4 30.7865L19.4 33.4398C20.28 34.6132 21.72 34.6132 22.6 33.4398L24.6 30.7865C24.8533 30.4532 25.2533 30.2532 25.6667 30.2532H27.6667C31.3467 30.2532 34.3333 27.2798 34.3333 23.6132V15.3598C33.9467 15.5598 33.4933 15.6665 32.96 15.6665Z" fill="#F38744"/>
<path d="M21 21.0002C20.2533 21.0002 19.6667 20.4002 19.6667 19.6668C19.6667 18.9335 20.2667 18.3335 21 18.3335C21.7333 18.3335 22.3333 18.9335 22.3333 19.6668C22.3333 20.4002 21.7467 21.0002 21 21.0002Z" fill="#F38744"/>
<path d="M26.3333 21.0002C25.5867 21.0002 25 20.4002 25 19.6668C25 18.9335 25.6 18.3335 26.3333 18.3335C27.0667 18.3335 27.6667 18.9335 27.6667 19.6668C27.6667 20.4002 27.08 21.0002 26.3333 21.0002Z" fill="#F38744"/>
<path d="M15.6667 21.0002C14.92 21.0002 14.3333 20.4002 14.3333 19.6668C14.3333 18.9335 14.9333 18.3335 15.6667 18.3335C16.4 18.3335 17 18.9335 17 19.6668C17 20.4002 16.4133 21.0002 15.6667 21.0002Z" fill="#F38744"/>
</svg>
