<svg width="42" height="42" viewBox="0 0 42 42" fill="none" xmlns="http://www.w3.org/2000/svg">
<path d="M0.5 8C0.5 3.85786 3.85786 0.5 8 0.5H34C38.1421 0.5 41.5 3.85786 41.5 8V34C41.5 38.1421 38.1421 41.5 34 41.5H8C3.85786 41.5 0.5 38.1421 0.5 34V8Z" fill="#D3F8DF"/>
<path d="M0.5 8C0.5 3.85786 3.85786 0.5 8 0.5H34C38.1421 0.5 41.5 3.85786 41.5 8V34C41.5 38.1421 38.1421 41.5 34 41.5H8C3.85786 41.5 0.5 38.1421 0.5 34V8Z" stroke="#AAF0C4"/>
<path opacity="0.4" d="M8.69341 18.3334C8.12008 18.3334 7.66675 17.8801 7.66675 17.3067V14.2267C7.66675 10.6134 10.6134 7.66675 14.2267 7.66675H17.3067C17.8801 7.66675 18.3334 8.12008 18.3334 8.69341C18.3334 9.26675 17.8801 9.72008 17.3067 9.72008H14.2267C11.7334 9.72008 9.72008 11.7467 9.72008 14.2267V17.3067C9.72008 17.8801 9.25341 18.3334 8.69341 18.3334Z" fill="#16B364"/>
<path opacity="0.4" d="M33.3067 18.3334C32.7467 18.3334 32.2801 17.8801 32.2801 17.3067V14.2267C32.2801 11.7334 30.2534 9.72008 27.7734 9.72008H24.6934C24.1201 9.72008 23.6667 9.25341 23.6667 8.69341C23.6667 8.13341 24.1201 7.66675 24.6934 7.66675H27.7734C31.3867 7.66675 34.3334 10.6134 34.3334 14.2267V17.3067C34.3334 17.8801 33.8801 18.3334 33.3067 18.3334Z" fill="#16B364"/>
<path d="M27.7733 34.3334H25.92C25.36 34.3334 24.8933 33.8801 24.8933 33.3067C24.8933 32.7467 25.3466 32.2801 25.92 32.2801H27.7733C30.2666 32.2801 32.28 30.2534 32.28 27.7734V25.9334C32.28 25.3734 32.7333 24.9067 33.3066 24.9067C33.8666 24.9067 34.3333 25.3601 34.3333 25.9334V27.7734C34.3333 31.3867 31.3866 34.3334 27.7733 34.3334Z" fill="#16B364"/>
<path d="M17.3067 34.3334H14.2267C10.6134 34.3334 7.66675 31.3867 7.66675 27.7734V24.6934C7.66675 24.1201 8.12008 23.6667 8.69341 23.6667C9.26675 23.6667 9.72008 24.1201 9.72008 24.6934V27.7734C9.72008 30.2667 11.7467 32.2801 14.2267 32.2801H17.3067C17.8667 32.2801 18.3334 32.7334 18.3334 33.3067C18.3334 33.8801 17.8801 34.3334 17.3067 34.3334Z" fill="#16B364"/>
<path d="M29.6134 19.9734H27.8001H14.2001H12.3868C11.8134 19.9734 11.3601 20.4401 11.3601 21.0001C11.3601 21.5601 11.8134 22.0267 12.3868 22.0267H14.2001H27.8001H29.6134C30.1868 22.0267 30.6401 21.5601 30.6401 21.0001C30.6401 20.4401 30.1868 19.9734 29.6134 19.9734Z" fill="#16B364"/>
<path d="M14.2 23.5866V24.0266C14.2 26.24 15.9866 28.0266 18.2 28.0266H23.8C26.0133 28.0266 27.8 26.24 27.8 24.0266V23.5866C27.8 23.4266 27.68 23.3066 27.52 23.3066H14.48C14.32 23.3066 14.2 23.4266 14.2 23.5866Z" fill="#16B364"/>
<path opacity="0.4" d="M14.2 18.4134V17.9734C14.2 15.7601 15.9866 13.9734 18.2 13.9734H23.8C26.0133 13.9734 27.8 15.7601 27.8 17.9734V18.4134C27.8 18.5734 27.68 18.6934 27.52 18.6934H14.48C14.32 18.6934 14.2 18.5734 14.2 18.4134Z" fill="#16B364"/>
</svg>
