<svg width="50" height="50" viewBox="0 0 50 50" fill="none" xmlns="http://www.w3.org/2000/svg">
<path d="M48.8333 36V48.8333H36" stroke="#254EDB" stroke-linecap="round" stroke-linejoin="round"/>
<path d="M14.0001 48.8333H1.16678V36" stroke="#254EDB" stroke-linecap="round" stroke-linejoin="round"/>
<path d="M36 1.1665H48.8179V13.9998" stroke="#254EDB" stroke-linecap="round" stroke-linejoin="round"/>
<path d="M14.0001 1.1665H1.16678V13.9998" stroke="#254EDB" stroke-linecap="round" stroke-linejoin="round"/>
<path d="M15 7H9C7.89543 7 7 7.89543 7 9V15C7 16.1046 7.89543 17 9 17H15C16.1046 17 17 16.1046 17 15V9C17 7.89543 16.1046 7 15 7Z" stroke="black" stroke-width="2"/>
<path d="M15 33H9C7.89543 33 7 33.8954 7 35V41C7 42.1046 7.89543 43 9 43H15C16.1046 43 17 42.1046 17 41V35C17 33.8954 16.1046 33 15 33Z" stroke="black" stroke-width="2"/>
<path d="M41 7H35C33.8954 7 33 7.89543 33 9V15C33 16.1046 33.8954 17 35 17H41C42.1046 17 43 16.1046 43 15V9C43 7.89543 42.1046 7 41 7Z" stroke="black" stroke-width="2" stroke-linejoin="round"/>
<path d="M16 21H14C13.4477 21 13 21.4477 13 22V24C13 24.5523 13.4477 25 14 25H16C16.5523 25 17 24.5523 17 24V22C17 21.4477 16.5523 21 16 21Z" fill="black"/>
<path d="M26 5H28C28.5522 5 29 5.44772 29 6V12C29 12.5523 28.5522 13 28 13H26C25.4478 13 25 13.4477 25 14V16C25 16.5523 24.5522 17 24 17H22C21.4478 17 21 16.5523 21 16V10C21 9.44772 21.4478 9 22 9H24C24.5522 9 25 8.55228 25 8V6C25 5.44772 25.4478 5 26 5Z" fill="black"/>
<path d="M24 25H18C17.4477 25 17 25.4477 17 26V28C17 28.5523 17.4477 29 18 29H24C24.5523 29 25 28.5523 25 28V26C25 25.4477 24.5523 25 24 25Z" fill="black"/>
<path d="M44 21H38C37.4477 21 37 21.4477 37 22V24C37 24.5523 37.4477 25 38 25H44C44.5523 25 45 24.5523 45 24V22C45 21.4477 44.5523 21 44 21Z" fill="black"/>
<path d="M32 37H26C25.4477 37 25 37.4477 25 38V40C25 40.5523 25.4477 41 26 41H32C32.5523 41 33 40.5523 33 40V38C33 37.4477 32.5523 37 32 37Z" fill="black"/>
<path d="M24 33H22C21.4477 33 21 33.4477 21 34V36C21 36.5523 21.4477 37 22 37H24C24.5523 37 25 36.5523 25 36V34C25 33.4477 24.5523 33 24 33Z" fill="black"/>
<path d="M25 24V22C25 21.4478 25.4478 21 26 21H32C32.5522 21 33 21.4478 33 22V29H36C36.5522 29 37 29.4478 37 30V32C37 32.5522 36.5522 33 36 33H33H30C29.4478 33 29 32.5522 29 32V26C29 25.4478 28.5522 25 28 25H26C25.4478 25 25 24.5522 25 24Z" fill="black"/>
<path d="M34 41H36C36.5522 41 37 40.5522 37 40V38C37 37.4478 37.4478 37 38 37H40C40.5522 37 41 36.5522 41 36V30C41 29.4478 41.4478 29 42 29H44C44.5522 29 45 29.4478 45 30V33V37V40C45 40.5522 44.5522 41 44 41H42C41.4478 41 41 41.4478 41 42V44C41 44.5522 40.5522 45 40 45H34C33.4478 45 33 44.5522 33 44V42C33 41.4478 33.4478 41 34 41Z" fill="black"/>
<path d="M5 28V22C5 21.4478 5.44772 21 6 21H8C8.55228 21 9 21.4478 9 22V24C9 24.5522 9.44772 25 10 25H12C12.5523 25 13 25.4478 13 26V28C13 28.5522 12.5523 29 12 29H6C5.44772 29 5 28.5522 5 28Z" fill="black"/>
<path d="M28 45H22C21.4478 45 21 44.5522 21 44V42C21 41.4478 21.4478 41 22 41H24C24.5522 41 25 40.5522 25 40V38C25 37.4478 25.4478 37 26 37H32C32.5522 37 33 37.4478 33 38V40C33 40.5522 32.5522 41 32 41H30C29.4478 41 29 41.4478 29 42V44C29 44.5522 28.5522 45 28 45Z" fill="black"/>
</svg>
