<svg width="42" height="42" viewBox="0 0 42 42" fill="none" xmlns="http://www.w3.org/2000/svg">
<path d="M0.5 8C0.5 3.85786 3.85786 0.5 8 0.5H34C38.1421 0.5 41.5 3.85786 41.5 8V34C41.5 38.1421 38.1421 41.5 34 41.5H8C3.85786 41.5 0.5 38.1421 0.5 34V8Z" fill="#095C37"/>
<path d="M0.5 8C0.5 3.85786 3.85786 0.5 8 0.5H34C38.1421 0.5 41.5 3.85786 41.5 8V34C41.5 38.1421 38.1421 41.5 34 41.5H8C3.85786 41.5 0.5 38.1421 0.5 34V8Z" stroke="#087443"/>
<path opacity="0.4" d="M8.69332 18.3332C8.11999 18.3332 7.66666 17.8798 7.66666 17.3065V14.2265C7.66666 10.6132 10.6133 7.6665 14.2267 7.6665H17.3067C17.88 7.6665 18.3333 8.11984 18.3333 8.69317C18.3333 9.2665 17.88 9.71984 17.3067 9.71984H14.2267C11.7333 9.71984 9.71999 11.7465 9.71999 14.2265V17.3065C9.71999 17.8798 9.25332 18.3332 8.69332 18.3332Z" fill="#3CCB7F"/>
<path opacity="0.4" d="M33.3067 18.3332C32.7467 18.3332 32.28 17.8798 32.28 17.3065V14.2265C32.28 11.7332 30.2533 9.71984 27.7733 9.71984H24.6933C24.12 9.71984 23.6667 9.25317 23.6667 8.69317C23.6667 8.13317 24.12 7.6665 24.6933 7.6665H27.7733C31.3867 7.6665 34.3333 10.6132 34.3333 14.2265V17.3065C34.3333 17.8798 33.88 18.3332 33.3067 18.3332Z" fill="#3CCB7F"/>
<path d="M27.7733 34.3334H25.92C25.36 34.3334 24.8933 33.8801 24.8933 33.3067C24.8933 32.7467 25.3467 32.2801 25.92 32.2801H27.7733C30.2667 32.2801 32.28 30.2534 32.28 27.7734V25.9334C32.28 25.3734 32.7333 24.9067 33.3067 24.9067C33.8667 24.9067 34.3333 25.3601 34.3333 25.9334V27.7734C34.3333 31.3867 31.3867 34.3334 27.7733 34.3334Z" fill="#3CCB7F"/>
<path d="M17.3067 34.3332H14.2267C10.6133 34.3332 7.66666 31.3865 7.66666 27.7732V24.6932C7.66666 24.1198 8.11999 23.6665 8.69332 23.6665C9.26666 23.6665 9.71999 24.1198 9.71999 24.6932V27.7732C9.71999 30.2665 11.7467 32.2798 14.2267 32.2798H17.3067C17.8667 32.2798 18.3333 32.7332 18.3333 33.3065C18.3333 33.8798 17.88 34.3332 17.3067 34.3332Z" fill="#3CCB7F"/>
<path d="M29.6133 19.9731H27.8H14.2H12.3867C11.8133 19.9731 11.36 20.4398 11.36 20.9998C11.36 21.5598 11.8133 22.0265 12.3867 22.0265H14.2H27.8H29.6133C30.1867 22.0265 30.64 21.5598 30.64 20.9998C30.64 20.4398 30.1867 19.9731 29.6133 19.9731Z" fill="#3CCB7F"/>
<path d="M14.2 23.5866V24.0266C14.2 26.24 15.9867 28.0266 18.2 28.0266H23.8C26.0133 28.0266 27.8 26.24 27.8 24.0266V23.5866C27.8 23.4266 27.68 23.3066 27.52 23.3066H14.48C14.32 23.3066 14.2 23.4266 14.2 23.5866Z" fill="#3CCB7F"/>
<path opacity="0.4" d="M14.2 18.4131V17.9731C14.2 15.7598 15.9867 13.9731 18.2 13.9731H23.8C26.0133 13.9731 27.8 15.7598 27.8 17.9731V18.4131C27.8 18.5731 27.68 18.6931 27.52 18.6931H14.48C14.32 18.6931 14.2 18.5731 14.2 18.4131Z" fill="#3CCB7F"/>
</svg>
