<svg width="29" height="28" viewBox="0 0 29 28" fill="none" xmlns="http://www.w3.org/2000/svg">
<rect x="0.5" width="28" height="28" rx="8" fill="#1C3BA4"/>
<g clip-path="url(#clip0_1637_7062)">
<path d="M14.5001 22.3334C9.89758 22.3334 6.16675 18.6026 6.16675 14.0001C6.16675 9.39758 9.89758 5.66675 14.5001 5.66675C19.1026 5.66675 22.8334 9.39758 22.8334 14.0001C22.8334 18.6026 19.1026 22.3334 14.5001 22.3334ZM14.5001 20.6667C16.2682 20.6667 17.9639 19.9644 19.2141 18.7141C20.4644 17.4639 21.1667 15.7682 21.1667 14.0001C21.1667 12.232 20.4644 10.5363 19.2141 9.28604C17.9639 8.03579 16.2682 7.33341 14.5001 7.33341C12.732 7.33341 11.0363 8.03579 9.78604 9.28604C8.53579 10.5363 7.83341 12.232 7.83341 14.0001C7.83341 15.7682 8.53579 17.4639 9.78604 18.7141C11.0363 19.9644 12.732 20.6667 14.5001 20.6667ZM15.3334 14.0001H18.6667V15.6667H13.6667V9.83342H15.3334V14.0001Z" fill="#F9F5FF"/>
</g>
<defs>
<clipPath id="clip0_1637_7062">
<rect width="20" height="20" fill="white" transform="translate(4.5 4)"/>
</clipPath>
</defs>
</svg>
